<svg xmlns="http://www.w3.org/2000/svg" height="1200" width="1600" version="1.1" xmlns:xlink="http://www.w3.org/1999/xlink" xmlns:svgjs="http://svgjs.com/svgjs"><rect fill="#040307" width="1600" height="1200"></rect><g><path d="M392.94 140.17C389.88 142.75 387.35 145.91 385.51 149.47 383.68 153.03 382.56 156.91 382.22 160.9 381.88 164.89 382.33 168.91 383.55 172.73 384.77 176.54 386.72 180.08 389.31 183.14L510.92 327.22 557.4 287.94 435.91 143.8C433.33 140.74 430.16 138.22 426.61 136.38 423.05 134.54 419.16 133.42 415.18 133.08 411.18 132.75 407.17 133.2 403.35 134.41 399.54 135.63 396 137.59 392.94 140.17V140.17Z" fill="#ffc930" opacity="1" stroke-width="4" stroke="#000000"></path><path d="M393.25 187.77L406.34 203.28 452.88 164.01 439.79 148.49 393.25 187.77Z" fill="#61ccff" opacity="1" stroke-width="4" stroke="#000000"></path><path d="M557.43 287.85L510.92 327.22 511.26 327.34 539.05 339.38 564.67 317.69 557.57 288.29 557.43 287.85Z" fill="#d2cab3" opacity="1" stroke-width="4" stroke="#000000"></path><path d="M573.73 354.36L564.67 317.69 539.05 339.38 573.73 354.36Z" fill="#000000" opacity="1" stroke-width="4" stroke="#000000"></path><path d="M418.82 192.8L522.67 315.95" stroke="#000000" stroke-width="4" stroke-linecap="round" stroke-linejoin="round" opacity="1" fill="none"></path><path d="M440.51 174.53L544.39 297.6" stroke="#000000" stroke-width="4" stroke-linecap="round" stroke-linejoin="round" opacity="1" fill="none"></path></g><g><path d="M1154 397.83L621.2 268.79 492.16 801.58 1024.96 930.62 1154 397.83Z" fill="#3c2c5b" opacity="1" stroke-width="4" stroke="#000000"></path></g><g><path d="M817.03 901.91C984.99 901.91 1121.14 765.75 1121.14 597.79 1121.14 429.84 984.99 293.68 817.03 293.68 649.07 293.68 512.91 429.84 512.91 597.79 512.91 765.75 649.07 901.91 817.03 901.91Z" fill="#5740a0" opacity="1" stroke-width="4" stroke="#000000"></path></g><g><path d="M1313.63 381.55C1328.48 381.55 1340.51 369.51 1340.51 354.67 1340.51 339.82 1328.48 327.79 1313.63 327.79 1298.79 327.79 1286.76 339.82 1286.76 354.67 1286.76 369.51 1298.79 381.55 1313.63 381.55Z" fill="#ffc930" opacity="1" stroke-width="4" stroke="#000000"></path></g><g><path d="M543.07 956.89C520.66 956.89 502.5 975.06 502.5 997.47 502.5 1019.88 520.66 1038.04 543.07 1038.04 565.48 1038.04 583.65 1019.88 583.65 997.47 583.65 975.06 565.48 956.89 543.07 956.89Z" fill="#3c2c5b00" opacity="0" stroke-width="4" stroke="#ffffff00"></path><path d="M512.9 978.43C510.95 1005.82 531.58 1029.6 558.97 1031.55 586.36 1033.5 610.14 1012.87 612.09 985.48 614.04 958.09 593.41 934.31 566.02 932.36 538.62 930.41 514.84 951.04 512.9 978.43Z" fill="#3c2c5b" opacity="1" stroke-width="4" stroke="#000000"></path></g><g><path d="M281.34 614.65C289.44 608.75 291.22 597.4 285.31 589.3 279.41 581.21 268.06 579.43 259.96 585.33 251.87 591.24 250.09 602.59 256 610.68 261.9 618.78 273.25 620.55 281.34 614.65Z" fill="#61ccff" opacity="1" stroke-width="4" stroke="#000000"></path></g><g><path d="M1342.43 820.95C1357.12 820.95 1369.03 809.04 1369.03 794.35 1369.03 779.65 1357.12 767.74 1342.43 767.74 1327.74 767.74 1315.82 779.65 1315.82 794.35 1315.82 809.04 1327.74 820.95 1342.43 820.95Z" stroke="#000000" stroke-width="4" stroke-linecap="round" stroke-linejoin="round" opacity="1" fill="none"></path></g><g><path d="M376.89 738.11C363.4 738.11 352.47 749.04 352.47 762.53 352.47 776.01 363.4 786.94 376.89 786.94 390.37 786.94 401.3 776.01 401.3 762.53 401.3 749.04 390.37 738.11 376.89 738.11Z" stroke="#000000" stroke-width="4" stroke-linecap="round" stroke-linejoin="round" opacity="1" fill="none"></path></g><g><path d="M984.3 746.92L933.3 390.85 716.51 421.92 657.34 500.89 698.44 787.89 984.3 746.92Z" fill="#61ccff" opacity="1" stroke-width="4" stroke="#000000"></path><path d="M713.64 505.5L716.51 421.92 657.34 500.89 713.64 505.5Z" fill="#61ccff00" opacity="0" stroke-width="4" stroke="#ffffff00"></path><path d="M726.41 490.99L716.51 421.92 657.34 500.89 726.41 490.99Z" fill="#3c2c5b" opacity="1" stroke-width="4" stroke="#000000"></path><path d="M732.98 535.78L867.58 516.49" stroke="#000000" stroke-width="4" stroke-linecap="round" opacity="1" fill="none"></path><path d="M747.14 634.6L854.28 619.29" stroke="#000000" stroke-width="4" stroke-linecap="round" opacity="1" fill="none"></path><path d="M740.11 585.15L821.13 573.61" stroke="#000000" stroke-width="4" stroke-linecap="round" opacity="1" fill="none"></path></g><g><path d="M112.9 670.31C216.95 743.14 447.93 651.58 590.13 563.14 748.28 464.64 753.48 361.63 689.67 362.68 600.88 364.06 385.5 641.17 514.17 699.09 620.3 747.3 811.4 655.39 862.04 710.88 912.67 766.37 936.26 890.54 1075.33 952.27" stroke="#000000" stroke-width="4" stroke-linecap="round" stroke-linejoin="round" opacity="1" fill="none"></path></g></svg>